<svg width="1823" height="415" viewBox="0 0 1823 415" fill="none" xmlns="http://www.w3.org/2000/svg">
<g clip-path="url(#clip0_200_5404)">
<path d="M204.153 366.466C174.641 419.79 102.702 428.192 50.4832 389.379C-15.5539 340.29 -20.7619 207.256 58.7466 155.807C100.341 128.867 141.866 130.047 190.057 147.891L190.265 0.416016L268.524 0.554881L269.288 348.552C289.425 358.064 297.202 372.159 295.814 390.559C294.564 407.015 276.232 413.055 256.997 412.5C229.013 411.736 209.014 402.571 204.292 366.466H204.153ZM192.696 282.73L192.418 214.061C166.031 197.952 130.547 194.203 104.993 211.284C82.4255 226.281 74.5788 258.845 77.9119 287.66C82.0089 323.209 108.743 346.4 141.866 344.803C171.378 343.414 192.765 315.155 192.696 282.73Z" fill="black"/>
<path d="M1389.63 385.145C1362.89 361.815 1359.77 323.35 1369 291.549C1386.23 231.976 1465.25 217.465 1539.34 243.641C1544.69 219.409 1525.87 196.496 1501.98 194.413C1467.05 191.358 1441.71 196.496 1401.99 208.23L1376.57 159.002C1432.61 128.105 1490.45 123.661 1549.06 139.978C1591.77 151.851 1614.54 190.525 1615.17 234.198L1616.83 353.9C1633.15 362.788 1644.12 375.563 1643.43 390.005C1642.53 407.433 1625.79 412.501 1607.04 412.501C1579.96 412.501 1561.14 399.865 1555.45 372.161C1512.81 416.806 1440.81 429.79 1389.63 385.145ZM1533.09 296.201C1523.09 280.301 1480.52 277.941 1464.76 284.676C1444 293.494 1436.15 315.712 1443.31 332.168C1450.46 348.623 1468.65 354.525 1489.34 352.511C1515.52 349.942 1551.91 326.196 1533.09 296.201Z" fill="black"/>
<path d="M1036.6 271.899C1036.6 350.913 972.294 414.93 892.925 414.93C813.555 414.93 749.254 350.844 749.254 271.899C749.254 192.954 813.555 128.867 892.925 128.867C972.294 128.867 1036.6 192.954 1036.6 271.899ZM958.267 272.315C958.267 226.906 927.089 198.369 890.286 200.314C851.469 202.327 826.193 234.961 828.137 275.718C830.082 316.475 857.094 347.997 896.674 345.289C929.728 342.998 958.198 314.045 958.267 272.385V272.315Z" fill="black"/>
<path d="M1154.23 279.884C1156.59 310.435 1177.49 335.222 1198.32 341.818C1228.46 351.331 1249.22 343.554 1275.26 318.975L1326.85 365.773C1265.4 433.331 1156.1 428.47 1103.26 357.996C1057.22 296.548 1069.79 207.882 1124.37 164.487C1185.2 116.092 1272.34 117.203 1327.2 179.484L1274.57 224.685C1249.71 200.106 1222.35 194.273 1194.5 206.077C1169.23 216.839 1151.38 243.293 1154.23 279.884Z" fill="black"/>
<path d="M718.562 348.067L725.229 406.807C689.259 415.069 653.636 416.111 621.625 392.99C603.57 379.936 591.835 343.692 591.766 320.363L591.141 0.97206L668.566 0L669.191 317.308C669.191 337.86 681.621 356.468 718.562 348.067Z" fill="black"/>
<path d="M1819.53 347.303L1823 407.987C1785.16 414.514 1754.12 415.555 1721.9 394.101C1704.33 382.367 1690.72 347.511 1690.65 324.39L1690.16 0.138866L1767.17 0L1767.87 315.989C1767.87 336.61 1781.41 358.482 1819.53 347.303Z" fill="black"/>
<path d="M473.787 205.035H396.223V282.592H473.787V205.035Z" fill="black"/>
</g>
<defs>
<clipPath id="clip0_200_5404">
<rect width="1823" height="415" fill="white"/>
</clipPath>
</defs>
</svg>
