<svg width="2161" height="491" viewBox="0 0 2161 491" fill="none" xmlns="http://www.w3.org/2000/svg">
<g clip-path="url(#clip0_200_5468)">
<path d="M193.39 130.361L210.519 98.2655L287.968 245.486L158.858 490.945L128.725 491L0 245.541L129.055 0.0820312H163.037L33.9821 245.486L143.984 454.641L253.959 245.486L193.39 130.361Z" fill="black"/>
<path d="M326.515 245.431L216.541 36.3031L106.566 245.486L167.08 360.501L150.061 392.817L72.584 245.486L201.612 0.137512L231.827 0L360.525 245.514L231.47 490.918H197.488L326.515 245.431Z" fill="black"/>
<path d="M1203.26 353.434L1148.55 353.571L1028.45 218.507L1028.34 353.571L974.182 353.681L974.154 143.453L1029.2 143.536L1148.9 278.187L1149.1 143.481L1203.23 143.453L1203.26 353.434Z" fill="black"/>
<path d="M691.244 353.516L628.971 353.736L590.7 288.116L525.265 288.061V353.626H470.883V143.453L611.43 143.563C624.297 143.563 636.175 147.358 647.584 151.676C663.531 159.184 674.776 171.561 680.247 188.337C691.134 224.338 679.615 256.57 646.485 276.565L691.244 353.544V353.516ZM617.011 240.041C623.692 229.673 625.315 218.782 623.06 207.259C622.318 194.773 613.327 185.972 600.57 185.092L525.238 185.037V246.257L606.179 246.34C610.221 245.349 613.85 243.122 617.011 240.014V240.041Z" fill="black"/>
<path d="M1416.78 318.038L1310.98 317.928L1296.79 353.681L1234.77 353.516L1327.26 143.536L1400.28 143.426L1492.85 353.544L1430.82 353.681L1416.78 318.011V318.038ZM1400.28 276.097L1363.8 183.689L1327.28 276.07H1400.28V276.097Z" fill="black"/>
<path d="M908.528 268.836L795.556 268.946L795.501 311.768L924.226 311.795L924.034 353.654H741.201V143.48L921.724 143.508L921.642 185.064H795.556V227.033L908.363 227.005L908.528 268.836Z" fill="black"/>
<path d="M1735.56 143.48L1735.48 289.078C1731.41 341.663 1690.8 352.389 1644.09 356.844C1614.67 359.649 1577.34 356.266 1552.1 342.213C1531.75 330.882 1519.77 311.465 1519.38 287.813V143.48H1573.71V286.355C1576.1 294.826 1581.9 300.684 1590.15 304.397C1613.33 314.793 1640.99 314.6 1664.3 304.452C1672.55 300.877 1678.49 295.019 1681.04 286.52L1681.15 143.535H1735.56V143.48Z" fill="black"/>
<path d="M2079.07 353.461L2024.8 353.736V185.174L1943.11 185.009L1943.14 143.48H2160.97L2161 185.092L2079.04 185.037L2079.07 353.461Z" fill="black"/>
<path d="M1969.12 311.768L1969.37 353.654H1795.39L1795.42 143.48H1849.77L1849.72 311.768H1969.12Z" fill="black"/>
</g>
<defs>
<clipPath id="clip0_200_5468">
<rect width="2161" height="491" fill="white"/>
</clipPath>
</defs>
</svg>
